<?xml version="1.0" encoding="UTF-8"?>
<svg version="1.1" viewBox="0 0 1500 1500" xmlns="http://www.w3.org/2000/svg">
<g transform="translate(-.21332 -.21332)">
<svg width="1500" height="1500" data-background-color="#ffffff" viewBox="0 0 334 334" xmlns="http://www.w3.org/2000/svg" xmlns:xlink="http://www.w3.org/1999/xlink">
<g transform="translate(.0475 .0475)">
<svg width="333.9" height="333.9" viewBox="0 0 333.90454557049503 333.90454557049503">
<svg/>
<svg width="333.9" height="333.9" viewBox="0 0 333.90454557049503 333.90454557049503">
<g fill="#1dbbc3" stroke="transparent">
<path d="m0 166.95c0-92.205 74.747-166.95 166.95-166.95s166.95 74.747 166.95 166.95c0 92.205-74.747 166.95-166.95 166.95-92.205 0-166.95-74.747-166.95-166.95zm166.95 157.94c87.23 0 157.94-70.714 157.94-157.94 0-87.23-70.714-157.94-157.94-157.94-87.23 0-157.94 70.714-157.94 157.94 0 87.23 70.714 157.94 157.94 157.94z" data-fill-palette-color="tertiary"/>
<ellipse cx="166.95" cy="166.95" rx="160.27" ry="160.27" stroke-width="0" data-fill-palette-color="tertiary"/>
</g>
<g transform="translate(65.623 71.173)">
<svg width="202.66" height="191.56" viewBox="0 0 202.65840616907045 191.55844122715712">
<svg width="202.66" height="191.56" viewBox="0 0 202.65840616907045 191.55844122715712">
<svg width="202.66" height="191.56" viewBox="0 0 222.6269391864674 210.43326182164265">
<g transform="translate(4.7342 100.71)">
<svg width="213.16" height="109.72" viewBox="0 0 213.1584412271571 109.72418122184808">
<svg width="213.16" height="109.72" viewBox="0 0 213.1584412271571 109.72418122184808">
<svg width="213.16" height="109.72" viewBox="0 0 213.1584412271571 109.72418122184808">
<g>
<svg width="213.16" height="109.72" data-palette-color="#ffffff" viewBox="4 -38.7 76.24 39.25">
<path class="wordmark-text-0" d="m22.1-34.5-0.55 5.35h-10.65l-0.3 9.2h9.55l-0.55 5.3h-9.15l-0.05 1.65 0.6 13h-7l0.6-12.15-0.6-22.35h18.1zm2.9-2.95 6.85-1.25-0.65 25.7 0.55 11.75-6.75 1.25 0.6-12.15-0.6-25.3zm21.65 32.35q1.45 0 3.05-0.75t2.5-1.5l0.9-0.75 2.3 2.8q-0.5 0.85-1.55 1.95t-2.13 1.87q-1.07 0.78-2.85 1.4-1.77 0.63-3.67 0.63-4.05 0-6.6-3.08-2.55-3.07-2.55-7.92 0-6.1 3.55-10.7t8.3-4.6q3.65 0 5.67 2.05 2.03 2.05 2.03 5.75 0 2.2-0.75 5l-1 1.05-12.5 1.15q0.85 5.65 5.3 5.65zm0-15.5q-2.2 0-3.7 1.78-1.5 1.77-1.75 4.52l8.5-1.05q0.15-1.15 0.15-1.9 0-3.35-3.2-3.35zm33.59 17.3-5.55 3.8-5.95-8.85-6.15 8.85-4.95-2.75 7.85-10.15-7.45-9.2 5.55-3.8 5.45 8.45 5.9-8.55 4.85 3-7.45 9.7 7.9 9.5z" fill="#fff" data-fill-palette-color="quaternary"/>
</svg>
</g>
</svg>
</svg>
</svg>
</g>
<svg width="222.63" height="74.806" viewBox="0 0 222.6269391864674 74.80583479366555">
<svg class="icon-icon-0" width="222.63" height="74.806" enable-background="new 0 0 75 75" data-fill-palette-color="quaternary" version="1.1" viewBox="8.407 27.724 58.188 19.552000000000003" xml:space="preserve" xmlns="http://www.w3.org/2000/svg" xmlns:xlink="http://www.w3.org/1999/xlink"><g fill="#fff" data-fill-palette-color="quaternary"><path d="m31.717 44.786c4.66-0.835 7.082-2.406 7.082-2.406s-9.914-2.879-16.351-6.77l0.263-2.674-14.304-0.16 12.911 14.5 0.357-2.941s2.533 0.51 6.606 0.51c-1e-3 -1e-3 2.678 0.078 3.436-0.059" data-fill-palette-color="quaternary"/><path d="m53.803 31.606 0.754 1.477c-3.198 2.708-5.874 4.842-10.172 7.369-3.108 1.758-7.483 4.145-10.958 4.661 4.46-0.207 12.63-1.21 16.696-2.721 2.701-1.003 7.099-3.362 7.099-3.362l0.707 1.285 8.666-12.591z" data-fill-palette-color="quaternary"/></g></svg>
</svg>
</svg>
</svg>
</svg>
</g>
</svg>
</svg>
<rect width="333.9" height="333.9" fill="none" visibility="hidden"/>
</g>
</svg>
</g>
</svg>
